<svg width="400" height="400" viewBox="0 0 400 400" fill="none" xmlns="http://www.w3.org/2000/svg">
<rect width="400" height="400" rx="200" fill="#FF9501"/>
<g clip-path="url(#clip0_10_14)">
<path d="M315 291.617C315 303.883 303.883 315 291.617 315H108.383C96.1167 315 85 303.883 85 291.617V108.383C85 96.1167 96.1167 85 108.383 85H291.617C303.883 85 315 96.1167 315 108.383V291.617Z" fill="#08446D"/>
<path d="M291.617 85C303.883 85 315 96.1167 315 108.383V291.617C315 303.883 303.883 315 291.617 315H108.383C96.1167 315 85 303.883 85 291.617" fill="#00233F"/>
<path d="M150.167 180.833C150.167 183.133 148.633 184.667 146.333 184.667C144.033 184.667 142.5 183.133 142.5 180.833V119.5C142.5 117.2 144.033 115.667 146.333 115.667C148.633 115.667 150.167 117.2 150.167 119.5V180.833Z" fill="white"/>
<path d="M117.967 154C115.667 154 113.75 152.467 113.75 150.167C113.75 147.867 115.667 146.333 117.967 146.333H177.383C179.683 146.333 181.6 147.867 181.6 150.167C181.6 152.467 179.683 154 177.383 154H117.967Z" fill="white"/>
<path d="M222.617 154C220.317 154 218.4 152.467 218.4 150.167C218.4 147.867 220.317 146.333 222.617 146.333H282.033C284.333 146.333 286.25 147.867 286.25 150.167C286.25 152.467 284.333 154 282.033 154H222.617Z" fill="white"/>
<path d="M129.467 269.767C127.933 271.3 125.25 271.3 123.717 269.767C122.183 268.233 122.183 265.55 123.717 264.017L165.5 221.85C167.033 220.317 169.717 220.317 171.25 221.85C172.783 223.383 172.783 226.067 171.25 227.6L129.467 269.767Z" fill="white"/>
<path d="M123.717 227.6C122.183 226.067 122.183 223.383 123.717 221.85C125.25 220.317 127.933 220.317 129.467 221.85L171.25 263.633C172.783 265.167 172.783 267.85 171.25 269.383C169.717 270.917 167.033 270.917 165.5 269.383L123.717 227.6Z" fill="white"/>
<path d="M222.617 265.167C220.317 265.167 218.4 263.633 218.4 261.333C218.4 259.033 220.317 257.5 222.617 257.5H282.033C284.333 257.5 286.25 259.033 286.25 261.333C286.25 263.633 284.333 265.167 282.033 265.167H222.617Z" fill="#FF9501"/>
<path d="M222.617 234.5C220.317 234.5 218.4 232.967 218.4 230.667C218.4 228.367 220.317 226.833 222.617 226.833H282.033C284.333 226.833 286.25 228.367 286.25 230.667C286.25 232.967 284.333 234.5 282.033 234.5H222.617Z" fill="#FF9501"/>
</g>
<defs>
<clipPath id="clip0_10_14">
<rect width="230" height="230" fill="white" transform="translate(85 85)"/>
</clipPath>
</defs>
</svg>
