<svg width="400" height="400" viewBox="0 0 400 400" fill="none" xmlns="http://www.w3.org/2000/svg">
<g clip-path="url(#clip0_10_15)">
<path d="M400 359.333C400 380.667 380.667 400 359.333 400H40.6667C19.3333 400 0 380.667 0 359.333V40.6667C0 19.3333 19.3333 0 40.6667 0H359.333C380.667 0 400 19.3333 400 40.6667V359.333Z" fill="#08446D"/>
<path d="M359.333 0C380.667 0 400 19.3333 400 40.6667V359.333C400 380.667 380.667 400 359.333 400H40.6667C19.3333 400 0 380.667 0 359.333" fill="#00233F"/>
<path d="M113.333 166.667C113.333 170.667 110.667 173.333 106.667 173.333C102.667 173.333 100 170.667 100 166.667V60C100 56 102.667 53.3333 106.667 53.3333C110.667 53.3333 113.333 56 113.333 60V166.667Z" fill="white"/>
<path d="M57.3333 120C53.3333 120 50 117.333 50 113.333C50 109.333 53.3333 106.667 57.3333 106.667H160.667C164.667 106.667 168 109.333 168 113.333C168 117.333 164.667 120 160.667 120H57.3333Z" fill="white"/>
<path d="M239.333 120C235.333 120 232 117.333 232 113.333C232 109.333 235.333 106.667 239.333 106.667H342.667C346.667 106.667 350 109.333 350 113.333C350 117.333 346.667 120 342.667 120H239.333Z" fill="white"/>
<path d="M77.3333 321.333C74.6666 324 69.9999 324 67.3333 321.333C64.6666 318.667 64.6666 314 67.3333 311.333L140 238C142.667 235.333 147.333 235.333 150 238C152.667 240.667 152.667 245.333 150 248L77.3333 321.333Z" fill="white"/>
<path d="M67.3333 248C64.6666 245.333 64.6666 240.667 67.3333 238C69.9999 235.333 74.6666 235.333 77.3333 238L150 310.667C152.667 313.333 152.667 318 150 320.667C147.333 323.333 142.667 323.333 140 320.667L67.3333 248Z" fill="white"/>
<path d="M239.333 313.333C235.333 313.333 232 310.667 232 306.667C232 302.667 235.333 300 239.333 300H342.667C346.667 300 350 302.667 350 306.667C350 310.667 346.667 313.333 342.667 313.333H239.333Z" fill="#FF9501"/>
<path d="M239.333 260C235.333 260 232 257.333 232 253.333C232 249.333 235.333 246.667 239.333 246.667H342.667C346.667 246.667 350 249.333 350 253.333C350 257.333 346.667 260 342.667 260H239.333Z" fill="#FF9501"/>
</g>
<defs>
<clipPath id="clip0_10_15">
<rect width="400" height="400" fill="white"/>
</clipPath>
</defs>
</svg>
